{
  "accessors": [
    {
      "bufferView": 2,
      "componentType": 5126,
      "count": 257,
      "max": [
        14.340277671813965,
        11.067428588867188,
        16.43229103088379
      ],
      "min": [
        -14.340277671813965,
        -10.980903625488281,
        1.8480091094970703
      ],
      "type": "VEC3"
    },
    {
      "bufferView": 2,
      "byteOffset": 3084,
      "componentType": 5126,
      "count": 257,
      "max": [
        0.971110463142395,
        0.9999951124191284,
        0.9955637454986572
      ],
      "min": [
        -0.9704058766365051,
        -1.0,
        -0.9877289533615112
      ],
      "type": "VEC3"
    },
    {
      "bufferView": 1,
      "componentType": 5126,
      "count": 257,
      "max": [
        0.6196742653846741,
        0.7368431687355042
      ],
      "min": [
        0.5106788873672485,
        0.46741169691085815
      ],
      "type": "VEC2"
    },
    {
      "bufferView": 0,
      "componentType": 5125,
      "count": 894,
      "type": "SCALAR"
    },
    {
      "bufferView": 2,
      "byteOffset": 6168,
      "componentType": 5126,
      "count": 150,
      "max": [
        10.496126174926758,
        7.897439479827881,
        21.811182022094727
      ],
      "min": [
        -10.460533142089844,
        -8.161406517028809,
        14.701631546020508
      ],
      "type": "VEC3"
    },
    {
      "bufferView": 2,
      "byteOffset": 7968,
      "componentType": 5126,
      "count": 150,
      "max": [
        0.8747063875198364,
        0.9990181922912598,
        0.9999327659606934
      ],
      "min": [
        -0.8791400194168091,
        -0.998684823513031,
        -0.999934196472168
      ],
      "type": "VEC3"
    },
    {
      "bufferView": 1,
      "byteOffset": 2056,
      "componentType": 5126,
      "count": 150,
      "max": [
        0.6159500479698181,
        0.7772254943847656
      ],
      "min": [
        0.5020121932029724,
        0.5666564106941223
      ],
      "type": "VEC2"
    },
    {
      "bufferView": 0,
      "byteOffset": 3576,
      "componentType": 5125,
      "count": 552,
      "type": "SCALAR"
    }
  ],
  "asset": {
    "extras": {
      "author": "Raphael C (https://sketchfab.com/Qurka)",
      "license": "CC-BY-4.0 (http://creativecommons.org/licenses/by/4.0/)",
      "source": "https://sketchfab.com/3d-models/halloween-pumpkin-stylized-game-ready-61680eba1a114343a88e7ce62cbfa0a4",
      "title": "Halloween Pumpkin Stylized [Game Ready]"
    },
    "generator": "Sketchfab-14.20.0",
    "version": "2.0"
  },
  "bufferViews": [
    {
      "buffer": 0,
      "byteLength": 5784,
      "name": "floatBufferViews",
      "target": 34963
    },
    {
      "buffer": 0,
      "byteLength": 3256,
      "byteOffset": 5784,
      "byteStride": 8,
      "name": "floatBufferViews",
      "target": 34962
    },
    {
      "buffer": 0,
      "byteLength": 9768,
      "byteOffset": 9040,
      "byteStride": 12,
      "name": "floatBufferViews",
      "target": 34962
    }
  ],
  "buffers": [
    {
      "byteLength": 18808,
      "uri": "scene.bin"
    }
  ],
  "images": [
    {
      "uri": "Material_219_baseColor.png"
    }
  ],
  "materials": [
    {
      "doubleSided": true,
      "name": "Material_219",
      "pbrMetallicRoughness": {
        "baseColorTexture": {
          "index": 0
        },
        "metallicFactor": 0.0,
        "roughnessFactor": 0.9163437026581408
      }
    }
  ],
  "meshes": [
    {
      "name": "Box071_Material #219_0",
      "primitives": [
        {
          "attributes": {
            "NORMAL": 1,
            "POSITION": 0,
            "TEXCOORD_0": 2
          },
          "indices": 3,
          "material": 0,
          "mode": 4
        }
      ]
    },
    {
      "name": "Object072_Material #219_0",
      "primitives": [
        {
          "attributes": {
            "NORMAL": 5,
            "POSITION": 4,
            "TEXCOORD_0": 6
          },
          "indices": 7,
          "material": 0,
          "mode": 4
        }
      ]
    }
  ],
  "nodes": [
    {
      "children": [
        1
      ],
      "matrix": [
        1.0,
        0.0,
        0.0,
        0.0,
        0.0,
        2.220446049250313e-16,
        -1.0,
        0.0,
        0.0,
        1.0,
        2.220446049250313e-16,
        0.0,
        0.0,
        0.0,
        0.0,
        1.0
      ],
      "name": "Sketchfab_model"
    },
    {
      "children": [
        2
      ],
      "matrix": [
        1.0,
        0.0,
        0.0,
        0.0,
        0.0,
        0.0,
        1.0,
        0.0,
        0.0,
        -1.0,
        0.0,
        0.0,
        0.0,
        0.0,
        0.0,
        1.0
      ],
      "name": "5f5882d6b4fd4cbab6097a9294530de8.fbx"
    },
    {
      "children": [
        3,
        6
      ],
      "name": "RootNode"
    },
    {
      "children": [
        4
      ],
      "matrix": [
        1.548976182937622,
        0.0,
        0.0,
        0.0,
        0.0,
        4.027714720785899e-16,
        -1.8139214515686035,
        0.0,
        0.0,
        2.4614336490631104,
        5.465480621553965e-16,
        0.0,
        0.0,
        -0.40569353103637695,
        0.0,
        1.0
      ],
      "name": "Box071"
    },
    {
      "children": [
        5
      ],
      "matrix": [
        1.0,
        0.0,
        -0.0,
        0.0,
        0.0,
        1.0,
        0.0,
        0.0,
        0.0,
        0.0,
        1.0,
        0.0,
        0.0,
        0.0,
        -2.19853520393372,
        1.0
      ],
      "name": "Object_4"
    },
    {
      "mesh": 0,
      "name": "Box071_Material #219_0"
    },
    {
      "children": [
        7
      ],
      "matrix": [
        1.548976182937622,
        0.0,
        0.0,
        0.0,
        0.0,
        4.027714720785899e-16,
        -1.8139214515686035,
        0.0,
        0.0,
        2.4614336490631104,
        5.465480621553965e-16,
        0.0,
        0.0,
        44.438507080078125,
        0.0,
        1.0
      ],
      "name": "Object072"
    },
    {
      "children": [
        8
      ],
      "matrix": [
        1.0,
        0.0,
        -0.0,
        0.0,
        0.0,
        1.0,
        0.0,
        0.0,
        0.0,
        0.0,
        1.0,
        0.0,
        -0.0177965499460697,
        0.131983414292336,
        -20.4549427032471,
        1.0
      ],
      "name": "Object_7"
    },
    {
      "mesh": 1,
      "name": "Object072_Material #219_0"
    }
  ],
  "samplers": [
    {
      "magFilter": 9729,
      "minFilter": 9987,
      "wrapS": 10497,
      "wrapT": 10497
    }
  ],
  "scene": 0,
  "scenes": [
    {
      "name": "Sketchfab_Scene",
      "nodes": [
        0
      ]
    }
  ],
  "textures": [
    {
      "sampler": 0,
      "source": 0
    }
  ]
}
